# xmcd CD database file
#
# Track frame offsets:
#	150
#	14670
#	33372
#	47560
#	62852
#	79137
#	93555
#	110755
#	127832
#	141850
#
# Disc length: 2095 seconds
#
# Revision: 0
# Processed by: cddbd v1.4PL0 Copyright (c) Steve Scherf et al.
# Submitted via: Feurio! 1.65 - http://www.feurio.com
#
DISCID=87082d0a
DTITLE=Peter Tschernig - Zwischen Himmel Und Erde-1994
DYEAR=1994
DGENRE=Country
TTITLE0=Eiskalt Abseviert
TTITLE1=In Dem Land,In Dem Er Jetzt Wohnt
TTITLE2=Also Dann,Alter Junge
TTITLE3=2 Mal 2 Ist 4
TTITLE4=Zwischen Himmel Und Erde
TTITLE5=Wir Beide
TTITLE6=Typen,So Wie Wir
TTITLE7=Taxi 408
TTITLE8=Wir Sitzen Alle Im Selben Boot
TTITLE9=Alle Zwei Sekunden
EXTD=BSC-1994
EXTT0=
EXTT1=
EXTT2=
EXTT3=
EXTT4=
EXTT5=
EXTT6=
EXTT7=
EXTT8=
EXTT9=
PLAYORDER=
